<svg width="90" height="90" xmlns="http://www.w3.org/2000/svg" xmlns:xlink="http://www.w3.org/1999/xlink" xml:space="preserve" overflow="hidden"><defs><filter id="fx0" x="-10%" y="-10%" width="120%" height="120%" filterUnits="userSpaceOnUse" primitiveUnits="userSpaceOnUse"><feComponentTransfer color-interpolation-filters="sRGB"><feFuncR type="discrete" tableValues="0 0"/><feFuncG type="discrete" tableValues="0 0"/><feFuncB type="discrete" tableValues="0 0"/><feFuncA type="linear" slope="0.4" intercept="0"/></feComponentTransfer><feGaussianBlur stdDeviation="1.77778 1.77778"/></filter><clipPath id="clip1"><rect x="765" y="161" width="90" height="90"/></clipPath><clipPath id="clip2"><rect x="1" y="5" width="90" height="78"/></clipPath></defs><g clip-path="url(#clip1)" transform="translate(-765 -161)"><g clip-path="url(#clip2)" filter="url(#fx0)" transform="translate(764 160)"><g><g><g><g><path d="M50.5365 12.6556C48.7085 12.5459 46.8793 13.5193 46.0138 15.2359L40.7056 25.7668 39.782 25.7668C39.0003 23.8383 37.4594 22.2724 35.2736 22.2724L14.5168 22.2724C11.6495 22.2724 9.26571 24.6563 9.26571 27.5234L9.26571 69.1274C9.26571 70.9477 10.0158 72.6089 11.2176 73.8214 11.9563 74.9983 13.2954 75.7638 15.0404 75.7638L15.4451 75.7638C15.6162 75.7773 15.7802 75.8162 15.9545 75.8162L65.4517 75.8162C65.626 75.8162 65.79 75.7773 65.9611 75.7638L66.1992 75.7638C69.4296 75.7638 72.8662 73.1963 73.783 70.0986L82.1572 41.7957C82.83 39.5222 81.9692 37.5449 80.191 36.6494L81.8716 33.3168C83.0256 31.0281 82.092 28.15 79.8007 26.9945L52.3316 13.1407C51.7587 12.8518 51.1461 12.6917 50.5368 12.6551ZM50.2842 17.5496 77.4732 31.2561 75.0119 36.1359 71.1843 36.1359 71.508 35.4932 70.4273 34.9504 51.5701 25.4532 50.4893 24.8962 49.3943 27.0718 50.4703 27.6288 67.3523 36.1363 55.9407 36.1363 48.1712 32.2182 47.0715 31.6802 45.9765 33.8559 47.0715 34.3938 50.5278 36.1363 40.9154 36.1363ZM14.5164 27.1381 35.2732 27.1381C35.526 27.1381 35.6494 27.2709 35.6494 27.5237L35.6494 30.6325 38.2487 30.6325 35.4732 36.1359 26.7706 36.1359C23.5401 36.1359 20.1035 38.6987 19.1867 41.7965L14.1307 58.8729 14.1307 27.5234C14.1307 27.2706 14.2636 27.1378 14.5164 27.1378ZM25.3568 40.897 76.5206 40.897C77.084 40.897 77.3518 41.2567 77.1919 41.7968L68.8129 70.0997C68.6531 70.6399 68.1718 70.9995 67.6086 70.9995L16.4493 70.9995C15.886 70.9995 15.6182 70.6398 15.7781 70.0997L24.1522 41.7968C24.3121 41.2565 24.7934 40.897 25.3566 40.897Z" fill="#4C4C4C"/></g></g></g></g></g><g><g><g><path d="M811.708 169.827C809.88 169.717 808.051 170.691 807.185 172.407L801.877 182.938 800.954 182.938C800.172 181.01 798.631 179.444 796.445 179.444L775.688 179.444C772.821 179.444 770.437 181.828 770.437 184.695L770.437 226.299C770.437 228.119 771.187 229.78 772.389 230.993 773.128 232.17 774.467 232.935 776.212 232.935L776.617 232.935C776.788 232.949 776.952 232.988 777.126 232.988L826.623 232.988C826.798 232.988 826.962 232.949 827.133 232.935L827.371 232.935C830.601 232.935 834.038 230.368 834.955 227.27L843.329 198.967C844.002 196.694 843.141 194.716 841.363 193.821L843.043 190.488C844.197 188.2 843.264 185.322 840.972 184.166L813.503 170.312C812.93 170.023 812.318 169.863 811.708 169.827ZM811.456 174.721 838.645 188.428 836.183 193.307 832.356 193.307 832.68 192.665 831.599 192.122 812.742 182.625 811.661 182.068 810.566 184.243 811.642 184.8 828.524 193.308 817.112 193.308 809.343 189.39 808.243 188.852 807.148 191.027 808.243 191.565 811.699 193.308 802.087 193.308ZM775.688 184.31 796.445 184.31C796.698 184.31 796.821 184.442 796.821 184.695L796.821 187.804 799.42 187.804 796.645 193.307 787.942 193.307C784.712 193.307 781.275 195.87 780.358 198.968L775.302 216.044 775.302 184.695C775.302 184.442 775.435 184.309 775.688 184.309ZM786.528 198.069 837.692 198.069C838.256 198.069 838.523 198.428 838.363 198.968L829.984 227.271C829.825 227.811 829.343 228.171 828.78 228.171L777.621 228.171C777.058 228.171 776.79 227.811 776.95 227.271L785.324 198.968C785.484 198.428 785.965 198.069 786.528 198.069Z" fill="#4C4C4C"/></g></g></g></g></svg>