<svg width="81" height="82" xmlns="http://www.w3.org/2000/svg" xmlns:xlink="http://www.w3.org/1999/xlink" xml:space="preserve" overflow="hidden"><defs><filter id="fx0" x="-10%" y="-10%" width="120%" height="120%" filterUnits="userSpaceOnUse" primitiveUnits="userSpaceOnUse"><feComponentTransfer color-interpolation-filters="sRGB"><feFuncR type="discrete" tableValues="0 0"/><feFuncG type="discrete" tableValues="0 0"/><feFuncB type="discrete" tableValues="0 0"/><feFuncA type="linear" slope="0.4" intercept="0"/></feComponentTransfer><feGaussianBlur stdDeviation="1.77778 1.77778"/></filter><clipPath id="clip1"><rect x="522" y="161" width="81" height="82"/></clipPath><clipPath id="clip2"><rect x="-2" y="3" width="85" height="76"/></clipPath></defs><g clip-path="url(#clip1)" transform="translate(-522 -161)"><g clip-path="url(#clip2)" filter="url(#fx0)" transform="translate(521 160)"><g><g><g><g><path d="M17.6511 14.9441C25.3135 7.73619 31.0961 4.75669 40.0204 7.82158L16.0688 31.7732 14.2997 32.3309 13.6524 34.1895 10.1806 37.6613 2.55701 30.0377 6.02879 26.5659 7.93211 25.8739 8.35564 24.2391Z" stroke="#4C4C4C" stroke-width="4.3125" stroke-linejoin="round" stroke-miterlimit="10" fill="none" transform="matrix(1 0 0 1.01449 6.82843 6.82843)"/><path d="M31.6391 35.3125 22.0399 25.8017 28.1809 19.6607 38.0035 29.3927M44.4235 35.7536 63.7168 54.8692 57.5758 61.0102 38.2187 41.8317" stroke="#4C4C4C" stroke-width="4.3125" stroke-linejoin="round" stroke-miterlimit="10" fill="none" transform="matrix(1 0 0 1.01449 6.82843 6.82843)"/><path d="M54.1089 6.43921C50.6589 6.42513 47.3463 7.78963 44.9069 10.2295 41.0302 14.106 40.0176 20.0052 42.38 24.9526L13.827 53.5056C12.1376 55.195 12.1376 57.9145 13.827 59.6037 15.5163 61.2929 18.2358 61.2931 19.925 59.6037L48.4824 31.0506C53.4297 33.413 59.329 32.4005 63.2055 28.5237 67.0807 24.6462 68.0916 18.7471 65.7281 13.8006L58.0422 21.4866 51.9441 15.3885 59.63 7.70256C57.9057 6.8788 56.02 6.44732 54.1089 6.43912Z" stroke="#4C4C4C" stroke-width="4.3125" fill="none" transform="matrix(1 0 0 1.01449 6.82843 6.82843)"/></g></g></g></g></g><g><g><g><path d="M17.6511 14.9441C25.3135 7.73619 31.0961 4.75669 40.0204 7.82158L16.0688 31.7732 14.2997 32.3309 13.6524 34.1895 10.1806 37.6613 2.55701 30.0377 6.02879 26.5659 7.93211 25.8739 8.35564 24.2391Z" stroke="#4C4C4C" stroke-width="4.3125" stroke-linejoin="round" stroke-miterlimit="10" fill="none" transform="matrix(1 0 0 1.01449 525 164)"/><path d="M31.6391 35.3125 22.0399 25.8017 28.1809 19.6607 38.0035 29.3927M44.4235 35.7536 63.7168 54.8692 57.5758 61.0102 38.2187 41.8317" stroke="#4C4C4C" stroke-width="4.3125" stroke-linejoin="round" stroke-miterlimit="10" fill="none" transform="matrix(1 0 0 1.01449 525 164)"/><path d="M54.1089 6.43921C50.6589 6.42513 47.3463 7.78963 44.9069 10.2295 41.0302 14.106 40.0176 20.0052 42.38 24.9526L13.827 53.5056C12.1376 55.195 12.1376 57.9145 13.827 59.6037 15.5163 61.2929 18.2358 61.2931 19.925 59.6037L48.4824 31.0506C53.4297 33.413 59.329 32.4005 63.2055 28.5237 67.0807 24.6462 68.0916 18.7471 65.7281 13.8006L58.0422 21.4866 51.9441 15.3885 59.63 7.70256C57.9057 6.8788 56.02 6.44732 54.1089 6.43912Z" stroke="#4C4C4C" stroke-width="4.3125" fill="none" transform="matrix(1 0 0 1.01449 525 164)"/></g></g></g></g></svg>