<svg width="96" height="96" xmlns="http://www.w3.org/2000/svg" xmlns:xlink="http://www.w3.org/1999/xlink" xml:space="preserve" overflow="hidden"><defs><filter id="fx0" x="-10%" y="-10%" width="120%" height="120%" filterUnits="userSpaceOnUse" primitiveUnits="userSpaceOnUse"><feComponentTransfer color-interpolation-filters="sRGB"><feFuncR type="discrete" tableValues="0 0"/><feFuncG type="discrete" tableValues="0 0"/><feFuncB type="discrete" tableValues="0 0"/><feFuncA type="linear" slope="0.4" intercept="0"/></feComponentTransfer><feGaussianBlur stdDeviation="1.77778 1.77778"/></filter><clipPath id="clip1"><rect x="832" y="378" width="96" height="96"/></clipPath><clipPath id="clip2"><rect x="1" y="15" width="97" height="64"/></clipPath></defs><g clip-path="url(#clip1)" transform="translate(-832 -378)"><g clip-path="url(#clip2)" filter="url(#fx0)" transform="translate(831 377)"><g><g><g><g><path d="M70.6675 33.5145C70.6675 33.5145 61.4796 26.7035 59.9774 26.2791 58.5448 25.8763 51.6418 25.2803 49.6276 26.4782 46.5167 28.3299 41.4962 34.669 38.4285 39.228 37.8478 40.0909 38.7145 41.2964 39.6173 41.8137 40.6762 42.4201 42.2059 42.6165 43.3783 42.2771 47.2871 41.1476 50.821 35.311 53.2779 36.0774 55.5513 36.7865 59.7276 46.3766 59.7276 46.3766M14.7031 30.8897 24.8733 30.8897C26.3155 30.8897 27.4765 32.0504 27.4765 33.4926L27.4765 57.0385C27.4765 58.4808 26.3155 59.6421 24.8733 59.6421L16.3026 59.6421C14.8605 59.6421 13.8692 58.471 13.6994 57.0385 12.6453 48.1486 12.3727 40.8214 12.0995 33.4926 12.0456 32.0511 13.2606 30.8897 14.7027 30.8897ZM59.5093 46.0234 66.3791 57.6441C67.3587 59.3014 66.8132 61.4242 65.1561 62.4039 63.4989 63.3836 61.3819 62.8346 60.3964 61.1808L55.0686 52.2576M83.8421 30.8892 73.6719 30.8892C72.2297 30.8892 71.0687 32.0501 71.0687 33.4922L71.0687 57.0381C71.0687 58.4804 72.2297 59.6417 73.6719 59.6417L82.2426 59.6417C83.6848 59.6417 84.676 58.4705 84.8458 57.0381 85.8999 48.1482 86.1725 40.8209 86.4457 33.4922 86.4996 32.0508 85.2847 30.8892 83.8425 30.8892ZM55.0686 52.2576 59.3839 59.8417C60.3248 61.5222 59.8185 63.6216 58.1613 64.6012 56.5042 65.5809 54.3887 65.0311 53.4016 63.3782L49.2631 56.4665M49.2766 56.4591 52.1354 61.7415C53.0517 63.4349 52.5698 65.5216 50.9125 66.5013 49.2553 67.4809 47.1325 66.9357 46.1529 65.2786L42.8227 59.6455M44.4211 62.4149C45.4008 64.072 44.8203 66.3718 43.1629 67.3512 41.5058 68.3309 39.383 67.7855 38.4033 66.1285L32.1489 55.5485M27.7783 33.3486C27.7783 33.3486 32.4697 34.1271 34.8844 33.5795 36.8016 33.1451 38.2036 31.3105 40.1167 30.8575 43.2592 30.1131 45.1547 30.4503 45.1547 30.4503M27.6745 55.3605 31.7796 55.4781" stroke="#4C4C4C" stroke-width="5.25001" stroke-linecap="round" stroke-linejoin="round" fill="none"/></g></g></g></g></g><g><g><g><path d="M898.839 407.686C898.839 407.686 889.651 400.875 888.149 400.451 886.716 400.048 879.813 399.452 877.799 400.65 874.688 402.501 869.668 408.841 866.6 413.4 866.019 414.262 866.886 415.468 867.789 415.985 868.848 416.592 870.378 416.788 871.55 416.449 875.459 415.319 878.993 409.483 881.449 410.249 883.723 410.958 887.899 420.548 887.899 420.548M842.875 405.061 853.045 405.061C854.487 405.061 855.648 406.222 855.648 407.664L855.648 431.21C855.648 432.652 854.487 433.814 853.045 433.814L844.474 433.814C843.032 433.814 842.041 432.643 841.871 431.21 840.817 422.32 840.544 414.993 840.271 407.664 840.217 406.223 841.432 405.061 842.874 405.061ZM887.681 420.195 894.551 431.816C895.53 433.473 894.985 435.596 893.328 436.576 891.671 437.555 889.553 437.006 888.568 435.352L883.24 426.429M912.014 405.061 901.843 405.061C900.401 405.061 899.24 406.222 899.24 407.664L899.24 431.21C899.24 432.652 900.401 433.813 901.843 433.813L910.414 433.813C911.856 433.813 912.848 432.642 913.017 431.21 914.071 422.32 914.344 414.992 914.617 407.664 914.671 406.222 913.456 405.061 912.014 405.061ZM883.24 426.429 887.555 434.013C888.496 435.694 887.99 437.793 886.333 438.773 884.676 439.752 882.56 439.203 881.573 437.55L877.435 430.638M877.448 430.631 880.307 435.913C881.223 437.607 880.741 439.693 879.084 440.673 877.427 441.652 875.304 441.107 874.324 439.45L870.994 433.817M872.593 436.587C873.572 438.244 872.992 440.543 871.334 441.523 869.677 442.502 867.555 441.957 866.575 440.3L860.32 429.72M855.95 407.52C855.95 407.52 860.641 408.299 863.056 407.751 864.973 407.317 866.375 405.482 868.288 405.029 871.431 404.285 873.326 404.622 873.326 404.622M855.846 429.532 859.951 429.65" stroke="#4C4C4C" stroke-width="5.25001" stroke-linecap="round" stroke-linejoin="round" fill="none"/></g></g></g></g></svg>