<svg width="92" height="92" xmlns="http://www.w3.org/2000/svg" xmlns:xlink="http://www.w3.org/1999/xlink" xml:space="preserve" overflow="hidden"><defs><filter id="fx0" x="-10%" y="-10%" width="120%" height="120%" filterUnits="userSpaceOnUse" primitiveUnits="userSpaceOnUse"><feComponentTransfer color-interpolation-filters="sRGB"><feFuncR type="discrete" tableValues="0 0"/><feFuncG type="discrete" tableValues="0 0"/><feFuncB type="discrete" tableValues="0 0"/><feFuncA type="linear" slope="0.4" intercept="0"/></feComponentTransfer><feGaussianBlur stdDeviation="1.77778 1.77778"/></filter><clipPath id="clip1"><rect x="451" y="376" width="92" height="92"/></clipPath><clipPath id="clip2"><rect x="-2" y="9" width="97" height="80"/></clipPath></defs><g clip-path="url(#clip1)" transform="translate(-451 -376)"><g clip-path="url(#clip2)" filter="url(#fx0)" transform="translate(450 375)"><g><g><g><g><path d="M76.8288 33.3852 84.329 45.9228 76.8288 43.6468Z" stroke="#4C4C4C" stroke-width="5.00001" stroke-linecap="round" stroke-linejoin="round"/><path d="M76.8099 29.3128 59.9646 24.0997 45.7612 19.1897 15.3267 29.6429" stroke="#4C4C4C" stroke-width="5.00001" stroke-linecap="round" stroke-linejoin="round" fill="none"/><path d="M46.8308 41.8929 46.8308 60.2509 46.8308 78.6089 62.3372 70.612 76.8099 63.3279 76.8099 46.3201 76.8099 29.3123 62.3372 35.2459Z" stroke="#4C4C4C" stroke-width="5.00001" stroke-linecap="round" stroke-linejoin="round" fill="none"/><path d="M46.8308 78.6099 14.4196 63.1951 14.4196 46.193" stroke="#4C4C4C" stroke-width="5.00001" stroke-linecap="round" stroke-linejoin="round" fill="none"/><path d="M46.9432 42.0932 37.0976 55.7703 9.32858 42.6242 15.3266 29.6435Z" stroke="#4C4C4C" stroke-width="5.00001" stroke-linecap="round" stroke-linejoin="round" fill="none"/><path d="M59.1306 52.2501C59.5181 52.2501 59.8322 52.5642 59.8322 52.9517L59.8322 53.9722C59.8322 54.3597 59.5181 54.6738 59.1306 54.6738L52.3913 54.6738C52.0038 54.6738 51.6897 54.3597 51.6897 53.9722L51.6897 52.9517C51.6897 52.5642 52.0038 52.2501 52.3913 52.2501Z" stroke="#4C4C4C" stroke-width="1.12543" fill="#4C4C4C" transform="matrix(0.999997 -0.410211 0 1.08087 6.82843 6.82843)"/></g></g></g></g></g><g><g><g><path d="M524 405.557 531.501 418.094 524 415.818Z" stroke="#4C4C4C" stroke-width="5.00001" stroke-linecap="round" stroke-linejoin="round"/><path d="M523.981 401.484 507.136 396.271 492.933 391.361 462.498 401.814" stroke="#4C4C4C" stroke-width="5.00001" stroke-linecap="round" stroke-linejoin="round" fill="none"/><path d="M494.002 414.064 494.002 432.422 494.002 450.781 509.509 442.784 523.981 435.499 523.981 418.492 523.981 401.484 509.509 407.417Z" stroke="#4C4C4C" stroke-width="5.00001" stroke-linecap="round" stroke-linejoin="round" fill="none"/><path d="M494.002 450.781 461.591 435.367 461.591 418.365" stroke="#4C4C4C" stroke-width="5.00001" stroke-linecap="round" stroke-linejoin="round" fill="none"/><path d="M494.115 414.265 484.269 427.942 456.5 414.796 462.498 401.815Z" stroke="#4C4C4C" stroke-width="5.00001" stroke-linecap="round" stroke-linejoin="round" fill="none"/><path d="M59.1306 52.2501C59.5181 52.2501 59.8322 52.5642 59.8322 52.9517L59.8322 53.9722C59.8322 54.3597 59.5181 54.6738 59.1306 54.6738L52.3913 54.6738C52.0038 54.6738 51.6897 54.3597 51.6897 53.9722L51.6897 52.9517C51.6897 52.5642 52.0038 52.2501 52.3913 52.2501Z" stroke="#4C4C4C" stroke-width="1.12543" fill="#4C4C4C" transform="matrix(0.999997 -0.410211 0 1.08087 454 379)"/></g></g></g></g></svg>