<svg width="89" height="89" xmlns="http://www.w3.org/2000/svg" xmlns:xlink="http://www.w3.org/1999/xlink" xml:space="preserve" overflow="hidden"><defs><filter id="fx0" x="-10%" y="-10%" width="120%" height="120%" filterUnits="userSpaceOnUse" primitiveUnits="userSpaceOnUse"><feComponentTransfer color-interpolation-filters="sRGB"><feFuncR type="discrete" tableValues="0 0"/><feFuncG type="discrete" tableValues="0 0"/><feFuncB type="discrete" tableValues="0 0"/><feFuncA type="linear" slope="0.4" intercept="0"/></feComponentTransfer><feGaussianBlur stdDeviation="1.77778 1.77778"/></filter><clipPath id="clip1"><rect x="645" y="525" width="89" height="89"/></clipPath><clipPath id="clip2"><rect x="1" y="3" width="90" height="86"/></clipPath></defs><g clip-path="url(#clip1)" transform="translate(-645 -525)"><g clip-path="url(#clip2)" filter="url(#fx0)" transform="translate(644 524)"><g><g><g><g><path d="M23.6719 11.6409 9.23464 23.6719 9.23464 33.2967 18.8595 33.2967 18.8595 28.4843 23.6719 28.4843 23.6719 76.6085 18.8595 76.6085 18.8595 81.4209 33.2967 81.4209 33.2967 76.6085 28.4843 76.6085 28.4843 28.4843 79.0147 28.4843 79.0147 35.7078 79.0147 36.2812 79.0147 38.1092 80.2224 38.1092C80.9012 38.1092 81.4116 38.6383 81.4116 39.3171 81.4116 39.9959 80.9012 40.525 80.2224 40.525 79.9055 40.525 79.6194 40.3994 79.4048 40.2052L78.5166 39.4063 76.8999 41.1829 77.8068 41.9959C78.4457 42.5734 79.2982 42.9216 80.2224 42.9216 82.2015 42.9216 83.8269 41.2962 83.8269 39.3173 83.8269 37.7603 82.8137 36.434 81.4207 35.9335L81.4207 28.4847 81.4207 27.8831 81.4207 23.6723 28.4842 11.6412 27.4033 11.6412 23.6717 11.6412ZM28.4843 14.1082 70.6363 23.6719 28.4843 23.6719 28.4843 14.1082ZM23.6719 14.7567 23.6719 23.672 12.9895 23.672 23.6719 14.7567Z" fill="#4C4C4C"/></g></g></g></g></g><g><g><g><path d="M664.843 532.812 650.406 544.843 650.406 554.468 660.031 554.468 660.031 549.656 664.843 549.656 664.843 597.78 660.031 597.78 660.031 602.593 674.468 602.593 674.468 597.78 669.656 597.78 669.656 549.656 720.186 549.656 720.186 556.879 720.186 557.453 720.186 559.281 721.394 559.281C722.073 559.281 722.583 559.81 722.583 560.489 722.583 561.167 722.073 561.697 721.394 561.697 721.077 561.697 720.791 561.571 720.576 561.377L719.688 560.578 718.071 562.354 718.978 563.167C719.617 563.745 720.47 564.093 721.394 564.093 723.373 564.093 724.998 562.468 724.998 560.489 724.998 558.932 723.985 557.606 722.592 557.105L722.592 549.656 722.592 549.055 722.592 544.844 669.656 532.813 668.575 532.813 664.843 532.813ZM669.656 535.28 711.808 544.843 669.656 544.843 669.656 535.28ZM664.843 535.928 664.843 544.844 654.161 544.844 664.843 535.928Z" fill="#4C4C4C"/></g></g></g></g></svg>